<svg xmlns="http://www.w3.org/2000/svg" viewBox="0 0 800 450"><g fill="none" stroke-width="2"><path stroke="#018cd2" d="M97.06 0q.76.67.47 1.43a1 1 0 0 0 .14.98c2 2.54-.88 8.37-.93 11.76-.59 39.91-.11 79.9-.19 119.83q0 2.73.25 11.68c.07 2.56.5 5.33 1.29 7.45q1.2 3.19.91 6.59-.65 7.77-1.56 15.45c-.69 5.76 3.38 6.21 5.86 10.15a.65.64-28.3 0 0 .82.24l.31-.15a.8.8 0 0 1 1.11.51q.41 1.46.07 2.88c-1.3 5.39-.3 12.75-.33 18.4q0 .64.09-.01l.24-1.64q.04-.25.06-.01l.29 3.96" vector-effect="non-scaling-stroke"/><path stroke="#80c8eb" d="m105.96 209.5.25 75" vector-effect="non-scaling-stroke"/><path stroke="#018cd2" d="M106.21 284.5q-1.21.5-.61-1.24.27-.81-.41-.3l-.42.31q-.65.49-.51-.32.13-.77-.63-1.19a1.01.97 6.2 0 1-.46-.55q-.34-1-1.22-.61a.79.78-2.7 0 0-.43.47l-.97 2.79q-.09.25-.04.51c.58 3.22-.64 5.76-.22 8.68q.31 2.14.75 4.3a1.01.98-38.8 0 1-.08.64q-1.24 2.56-1.05 5.44a.99.97 65.7 0 1-.27.75c-3.34 3.52-1.48 6.01-1.93 9.96-.36 3.18-.17 6.3-.61 9.45-.97 6.95-.4 13.45-.59 20.66-.17 6.08 2.36 14.33 0 21.8q-.13.41.06 2.1a1 1 0 0 0 .95.88c3.01.13 1.98 5.7 1.99 7.95a.97.97 0 0 1-.47.85q-1.08.67-2.07.03a1 .99-66.3 0 0-1.5.59q-.57 2.14-.02 5.03.96 5.04-.84 10.87-.53 1.72-.5 3.87c.04 2.92-.94 5.24-.79 8.18q.32 5.84-2.66 10.87a.99.98 15.5 0 1-.87.49l-3.33-.04q-3.04-.04-2.64 3.02.35 2.69 1.13 4.88c.71 2-.4 4.23-.25 6.48q.3 4.28-1.24 8.36a.99.97-40.4 0 0-.05.53q.86 4.7-.97 9.01" vector-effect="non-scaling-stroke"/><path stroke="#0182c9" d="M192.06 0q-1 .79-2.3.93a1 1 0 0 0-.79.56c-1.55 3.15-2.12 6.56-1.3 10.01 1.26 5.33-1.57 9.54-.91 15.19.45 3.79.39 9.36.29 12.71-.13 3.89.4 10.57-.95 14.07a1 .96 50.1 0 0-.04.58q.72 3.28.24 6.53c-.36 2.36.31 4.41.14 6.71-.28 3.92-.49 8.53-.14 12.28q.21 2.21 0 4.41c-.24 2.49.19 4.73.06 7.12-.22 4.15-.35 8.71-.15 12.77q.87 17.61.84 35.26c0 3.84-.21 6.66.48 10.87 1.05 6.38 1.25 18.19-3.69 23.6a.97.95-21.6 0 0-.25.56l-.25 2.22a.99.98 89.3 0 1-.85.88q-1.23.18-.57.62 1.04.71-.21.75l-.95.04a.33.3-78.8 0 0-.29.21c-.23.61 3.24.31 4.28.58" vector-effect="non-scaling-stroke"/><path stroke="#80c3e7" d="M184.75 179.46q-17.1-.2-72.31-.11c-5.64.01-6.46 2.76-6.44 7.86q.03 11.18-.04 22.29" vector-effect="non-scaling-stroke"/><path stroke="#007ac0" d="m274.31 0-3.16.81a1 .99 85.9 0 0-.74.87c-.26 2.48.28 4.65-.38 7.05q-2.05 7.39-1.6 15.05c.19 3.11 2.3 4.73 1.95 8q-.55 5.21-.96 7.39-.27 1.39.3 2.44a1 .99 56.9 0 0 1.49.32q.96-.74 2.31.19a1.02 1.02 0 0 1 .43.79c.08 2.5.62 6.51-.14 8.93-.42 1.35.2 3.25.2 4.14q.03 41.94.13 83.89c0 3.04 1.28 6.23 1.22 9.62a1.04 1.04 0 0 0 .17.57c4.86 7.23 2.52 13.44-3.62 18.71a1.02.99 77.7 0 0-.31.5c-.62 2.34.33 5.36-.86 7.18a1.02.98-29.7 0 0-.16.54q-.04 4.42.21 8.86c.15 2.63-.94 5.15.01 8.18a1 .98 54.7 0 1-.14.88q-.99 1.37-2.67 1.31a.65.64-81.7 0 0-.65.49q-.25 1.07-1.15-1.05a1 1 0 0 0-.99-.6q-.81.06-1.24.94" vector-effect="non-scaling-stroke"/><path stroke="#80bee1" d="M263.96 196c-23.5-13.56-52.38-16.84-79.21-16.54" vector-effect="non-scaling-stroke"/><path stroke="#0170b6" d="M388.06 0q3.3 1.8 2.06 5.24a1.04.99 46.3 0 0 0 .65c1.07 3.24 1.35 6.03 2.21 10.18.84 4.06-1.3 6.2-2.28 9.21q-2.03 6.22-1.99 12.81a.96.91-28.2 0 1-.2.6q-1.06 1.43-.3 2.81.11.21.12.45c.42 11.98.21 23.76 1.56 35a.98.94-68.7 0 0 .21.51q4.85 5.96.42 12.45a.95.95 0 0 0-.17.51c-.55 10.58-1.07 20.51-1 31.69q.04 8.47-.05 22.14c-.02 4.18-1.16 7.28-.55 11.17q.26 1.67.18 3.2-.4 8.46-.77 16.97a1 .99 83.6 0 1-.73.92l-1.97.56a1.01 1-6.9 0 0-.73.92q-.03.91-.89.92-7.74.08-9.69.3" vector-effect="non-scaling-stroke"/><path stroke="#80bbde" d="M373.5 179.21q-25.49-.03-34.43.4-11.39.54-18.3 2.2c-17.59 4.21-38.03 19.02-21.54 38.44 7.84 9.24 19.69 14.26 30.89 19.63q11.18 5.35 22.47 10.51c6.32 2.88 22.2 10.46 16.47 19.35-3.47 5.36-12.62 6.39-18.5 6.41-29.22.13-58.41.06-87.63-.02a.99.98-3.6 0 1-.98-.86l-.18-1.28a1.01 1-19.2 0 1 .49-1c31.33-18.38 33.06-57.91 1.7-76.99" vector-effect="non-scaling-stroke"/><path stroke="#0164a8" d="M475.06 0q-1.09.5-2.32.58a1 1 0 0 0-.91 1.23q1.41 5.97 1.65 12.12.1 2.61-.89 5.91c-1.3 4.32-2.29 7.44-1.63 12.18.94 6.78-.72 13.12-.76 19.11-.04 4.43-.66 8.39 1.73 12.38a.99.98 30.7 0 1 .14.54q-.15 7.36.4 14.72c.17 2.2-.91 4.48-.5 6.9.76 4.35.74 8.52 1.47 12.84 1.06 6.29.98 11.78.17 18.08-.23 1.81.39 6.02-.6 7.33a1 1 0 0 0-.18.82q.79 3.56.22 7.11c-.4 2.5.04 5.27-.78 7.74q-.68 2.04-.97 3.95c-.47 3.14-2.37 5.23-3.22 7.53-1.93 5.2-2.67 11.74-3.81 17.21-.41 2-.51 5.42-1.71 8.04a.53.53 0 0 0 0 .42q.23.5-.49.55a.65.63 8.8 0 0-.55.39l-.1.24a1.01 1.01 0 0 1-.76.59l-4.16.7" vector-effect="non-scaling-stroke"/><path stroke="#80b4d7" d="M456.5 179.21h-83" vector-effect="non-scaling-stroke"/><path stroke="#015a9c" d="M642.83-.01q3.77 3.44-.23 6.98a1.01.99-21.8 0 0-.34.77q.11 5.27.95 10.48.26 1.59.07 3.56c-.28 2.8.25 6.6.27 8.32q.07 4.97.15 9.94c.03 1.68.95 3.28.84 4.97q-.25 3.96-.05 6.94c.13 1.89-.68 3.34-.73 5.17-.1 3.74-1.37 6.18-1.56 9.61q-.53 9.3-2.42 18.43c-.47 2.27.01 4.15-.13 6.44-.38 6.25-.35 12.41-2.07 18.19q-.53 1.81-.32 3.95.24 2.39-1.78 2.79a1 1 0 0 0-.76 1.28q.3.94 1.09 1.75a.98.93 21.2 0 1 .28.59l.34 2.99a.81.79 86 0 1-.76.89q-.53.02-.35-.4.31-.72-.46-.56c-2.5.53-1.51 5.88-1.08 7.55a1.07 1-47 0 1 0 .53q-1.07 3.69.01 7.4a.95.91-47.2 0 1 .01.55c-.95 3.27-.16 6.66-.38 9.66q-.29 3.94.33 7.91a.33.32 78.5 0 1-.24.37c-.42.1.09 14.34.16 15.87a.34.32 77.2 0 1-.19.32c-.23.1-.34 25.36-.32 27.53a1 1 0 0 0 .66.94q2.73.98 2.18 3.89a.98.95-52.9 0 0 .07.59q.64 1.47.75 3.01a.33.32 78.9 0 0 .42.29l.34-.1a.81.79-20.1 0 1 .97.44q1.11 2.56-.91 1.58a1.01 1-57.5 0 0-1.21.27l-.81 1a.99.98-49.5 0 0 .1 1.37c3.21 2.88 5.08 11.22 4.86 15.41a1.03 1.02 26.8 0 0 .24.71q1.24 1.45 1.87.25.4-.75.5.09.32 2.76 1.82 4.74.61.81 1.39.57a1.01.99 74.7 0 1 1.26.73q.41 1.72 1.98 2.61a.82.8 43.1 0 0 .82-.02q.75-.47.33 1.12" vector-effect="non-scaling-stroke"/><path stroke="#80afd1" d="M650.79 240.25q-12.44 16.39-25 32.71c-2.65 3.45-2.76 4-5.52.13q-21.51-30.22-42.69-60.68c-1.84-2.65-3.42-3.92-6.58-3.92q-43.52.02-87.28-.01a1 1 0 0 1-1-1.01q.12-11.34.01-22.03c-.05-4.55-2.65-5.92-6.94-6.03q-9.66-.25-19.29-.2" vector-effect="non-scaling-stroke"/><path stroke="#015a9c" d="m641.44 450 .47-9.51a1.04.92-30.1 0 1 .17-.51c2.07-3.07 1.14-6.54 2.67-10 .77-1.73.64-3.06-.13-4.65a.98.97-53.8 0 1-.09-.59q.66-4.18-1.25-8.03a1.01.96-56.2 0 1-.1-.58c.47-3.35-.64-6.15-.56-9.37.09-3.48-1.03-6.76-1.03-9.96q-.02-13.1-.01-26.2c.01-9.38 1.2-22.69.6-34.14-.35-6.84.88-14.32.1-19.77-.67-4.79-.09-9.38-2-13.9a1.03 1.03 0 0 1 0-.76q1.37-3.43-.07-6.88a.98.95 41.1 0 1-.05-.59q.5-2.32-.17-4.59a1 1 0 0 0-.96-.72c-1.63 0-6.24.81-6.53-1.46" vector-effect="non-scaling-stroke"/><path stroke="#80aacb" d="M632.5 287.79q1.31-.76 2.82-2.72 28.57-37.19 56.61-74.8 1.1-1.48-.74-1.6-6.08-.39-12.31-.07c-3.51.17-5.28 1.37-7.25 4.04q-7.12 9.68-20.84 27.61" vector-effect="non-scaling-stroke"/><path stroke="#80afd1" d="M632.5 287.79c-1.08.34-2.21.71-3.37.71q-81.97-.08-163.96.11" vector-effect="non-scaling-stroke"/><path stroke="#80b4d7" d="M465.17 288.61c-11.92-.34-25.22-1.58-29.9-15.31q-1.24-3.63-1.27-12.75-.1-33.63-.31-66.29-.02-2.47-2.49-2.47-31.92-.1-62.88.25c-7.96.08-23.92.84-23.4 12.7a.96.96 0 0 0 .21.57q4.4 5.68 10.94 8.88 19.4 9.51 38.73 19.15c10.86 5.42 28.28 15.23 27.16 29.33-1.08 13.68-15.9 20.74-27.46 23.54" vector-effect="non-scaling-stroke"/><path stroke="#80bbde" d="M394.5 286.21q-11.06 2.29-18 2.29-90.5 0-181 .21" vector-effect="non-scaling-stroke"/><path stroke="#80c3e7" d="M195.5 288.71c-28.1-.62-55.33-.25-84.5-.18q-4.11.01-4.79-4.03" vector-effect="non-scaling-stroke"/><path stroke="#80bee1" d="M226.54 206.97q-13.26-10.8-30.31-13.52-19.64-3.12-39.56-2.2-2.01.1-2.93.34a2 1.97-7.7 0 0-1.48 1.91v81.92a1 .99-88.2 0 0 .93 1c25.43 1.6 65.44.76 80.77-23.7 9.06-14.45 6.23-34.63-7.42-45.75" vector-effect="non-scaling-stroke"/><path stroke="#80afd1" d="M482.78 266.92c.04 7.47 4.33 10.15 11.47 10.14q39.77-.04 78.87-.07 2.02 0 .8-1.6l-40.54-53.28q-1.41-1.86-3.88-1.86h-45.7a1.01 1.01 0 0 0-1.01 1q-.1 22.93-.01 45.67" vector-effect="non-scaling-stroke"/><path stroke="#0164a8" d="M465.17 288.61q1.82 1.25 5.9 2.07 1.96.39 3.64 2.79a1.02 1 40.9 0 1 .08 1.02q-1.88 3.75 1.56 6.2 1.48 1.05.77 3.18-.34 1.03.24 2.85.08.24.03.49c-.93 5.01 2.87 7.32 4.69 11.64 1.87 4.45-3.4 7.49 2.77 11.64a.98.96 14.3 0 1 .44.73q.29 2.93.99 5.77c.26 1.05-.17 2.14-.17 3.08q.09 30.73.01 61.48c-.01 2.48.31 6.76.03 10.06-.26 3.21.1 6.14-.07 9.31-.1 1.85 1.15 3.12 1.1 5.02q-.15 6.9.08 13.82c.11 3.21-1.19 5.03-3.75 6.56a1 .99 61.5 0 0-.38 1.3l.68 1.38a1.01 1-21.1 0 0 1.19.52q2.58-.78 4.94.48" vector-effect="non-scaling-stroke"/><path stroke="#0170b6" d="M406.44 450q-.23-1.94-1.8-2.64a1 1 0 0 1-.59-.97q.41-7.54-.57-14.21c-.49-3.36.91-5.61-.67-9.22a1.02 1.02 0 0 1 0-.82q1.6-3.48-.18-6.74a1 .99 43.4 0 1-.03-.91c1.76-3.7.57-6.13.86-9.75q.15-1.79.07-3.58c-.15-3.46.66-6.7.38-10.16-.1-1.24.36-2.67.24-3.69q-1.41-11.67 1.3-23.13a.93.93 0 0 0-.08-.67q-.65-1.32.03-2.49a1.02 1 42 0 0-.07-1.11c-1.28-1.67-.83-3.56-1.1-4.96q-1.11-5.84-1.91-11.7c-.18-1.35-.99-3.33-.43-5.08q.95-2.95.97-3.08.41-2.43.93-4.84.36-1.65-1.15-3.39-.73-.84-1.56-.47a.8.8 0 0 1-1.11-.58q-.45-2.27 1.91-2.77a1.01 1-89 0 0 .77-.75l1.38-5.91q.05-.24-.01-.48-.48-1.84.49-3.44a1.04 1.01-34.5 0 0 .13-.66l-1.22-8.57a1 .98-69.2 0 0-.21-.48q-5.95-7.43-8.71-16.54" vector-effect="non-scaling-stroke"/><path stroke="#017fc6" d="M195.5 288.71q-11.12.07-22.24.04-.27-.01-.52.04-3.94.77-.75.77.96 0 .09.4-1.43.65 1.44 1.34a1.06 1.04-9.5 0 1 .6.42q1.24 1.89 3.44 2.73a.99.98 87.4 0 1 .53.49l2.39 4.84a1 .98 40.8 0 1 .06.74q-.72 2.33.16 5.53c.39 1.43-.9 3.13-1.13 4.39q-.32 1.78-.67 4.6-.62 5.09.92 9.66.61 1.83 1.75.28l.38-.51a.33.32-51.4 0 0-.04-.43l-.24-.23a.21.2 54.5 0 1 .05-.34q2.99-1.34.21-1.88-.36-.07.01-.4l.22-.2a.26.26 0 0 0 .06-.3q-1.49-3.41-.91-7.1a1.02 1-15.9 0 1 .34-.6q.71-.61.27-1.4a1.01 1.01 0 0 1 .07-1.07q.4-.55.25-1.17a1.01 1.01 0 0 1 .91-1.24l.73-.04a1.02.98 62.5 0 1 .73.25c5.4 4.85 2.71 18.11.25 24.2a1.02.99-40.8 0 0-.05.57q1.05 5.37.57 7.58c-.88 4.07.54 7.72-.46 11.92a.98.97 34.2 0 0 .16.81q.84 1.16-.09 2.32a1 1 0 0 0-.07 1.15q1.04 1.7-.43 1.95a1 1 0 0 0-.83 1.03l.52 12.53a1.05 1.04 61.4 0 1-.18.62q-1.29 1.84-.08 3.83a1 .96 32.8 0 1 .14.6q-.29 3.78-.09 7.54c.36 6.69.57 13.11.17 19.47-.13 2.06-.65 13.23.24 13.39a.41.41 0 0 1 .31.56q-.68 1.66-.68 2.11-.02 13.34 0 27.23a1.01.99 76.1 0 1-.52.88c-2.01 1.1-4.37.42-6.09.68q-1.74.26-3.46.71" vector-effect="non-scaling-stroke"/></g><path fill="#0190d6" d="M0 0h97.06q.76.67.47 1.43a1 1 0 0 0 .14.98c2 2.54-.88 8.37-.93 11.76-.59 39.91-.11 79.9-.19 119.83q0 2.73.25 11.68c.07 2.56.5 5.33 1.29 7.45q1.2 3.19.91 6.59-.65 7.77-1.56 15.45c-.69 5.76 3.38 6.21 5.86 10.15a.65.64-28.3 0 0 .82.24l.31-.15a.8.8 0 0 1 1.11.51q.41 1.46.07 2.88c-1.3 5.39-.3 12.75-.33 18.4q0 .64.09-.01l.24-1.64q.04-.25.06-.01l.29 3.96.25 75q-1.21.5-.61-1.24.27-.81-.41-.3l-.42.31q-.65.49-.51-.32.13-.77-.63-1.19a1.01.97 6.2 0 1-.46-.55q-.34-1-1.22-.61a.79.78-2.7 0 0-.43.47l-.97 2.79q-.09.25-.04.51c.58 3.22-.64 5.76-.22 8.68q.31 2.14.75 4.3a1.01.98-38.8 0 1-.08.64q-1.24 2.56-1.05 5.44a.99.97 65.7 0 1-.27.75c-3.34 3.52-1.48 6.01-1.93 9.96-.36 3.18-.17 6.3-.61 9.45-.97 6.95-.4 13.45-.59 20.66-.17 6.08 2.36 14.33 0 21.8q-.13.41.06 2.1a1 1 0 0 0 .95.88c3.01.13 1.98 5.7 1.99 7.95a.97.97 0 0 1-.47.85q-1.08.67-2.07.03a1 .99-66.3 0 0-1.5.59q-.57 2.14-.02 5.03.96 5.04-.84 10.87-.53 1.72-.5 3.87c.04 2.92-.94 5.24-.79 8.18q.32 5.84-2.66 10.87a.99.98 15.5 0 1-.87.49l-3.33-.04q-3.04-.04-2.64 3.02.35 2.69 1.13 4.88c.71 2-.4 4.23-.25 6.48q.3 4.28-1.24 8.36a.99.97-40.4 0 0-.05.53q.86 4.7-.97 9.01H0V0Z"/><path fill="#0187ce" d="M97.06 0h95q-1 .79-2.3.93a1 1 0 0 0-.79.56c-1.55 3.15-2.12 6.56-1.3 10.01 1.26 5.33-1.57 9.54-.91 15.19.45 3.79.39 9.36.29 12.71-.13 3.89.4 10.57-.95 14.07a1 .96 50.1 0 0-.04.58q.72 3.28.24 6.53c-.36 2.36.31 4.41.14 6.71-.28 3.92-.49 8.53-.14 12.28q.21 2.21 0 4.41c-.24 2.49.19 4.73.06 7.12-.22 4.15-.35 8.71-.15 12.77q.87 17.61.84 35.26c0 3.84-.21 6.66.48 10.87 1.05 6.38 1.25 18.19-3.69 23.6a.97.95-21.6 0 0-.25.56l-.25 2.22a.99.98 89.3 0 1-.85.88q-1.23.18-.57.62 1.04.71-.21.75l-.95.04a.33.3-78.8 0 0-.29.21c-.23.61 3.24.31 4.28.58q-17.1-.2-72.31-.11c-5.64.01-6.46 2.76-6.44 7.86q.03 11.18-.04 22.29l-.29-3.96q-.02-.24-.06.01l-.24 1.64q-.09.65-.09.01c.03-5.65-.97-13.01.33-18.4q.34-1.42-.07-2.88a.8.8 0 0 0-1.11-.51l-.31.15a.65.64-28.3 0 1-.82-.24c-2.48-3.94-6.55-4.39-5.86-10.15q.91-7.68 1.56-15.45.29-3.4-.91-6.59c-.79-2.12-1.22-4.89-1.29-7.45q-.25-8.95-.25-11.68c.08-39.93-.4-79.92.19-119.83.05-3.39 2.93-9.22.93-11.76a1 1 0 0 1-.14-.98q.29-.76-.47-1.43Z"/><path fill="#007dc3" d="M192.06 0h82.25l-3.16.81a1 .99 85.9 0 0-.74.87c-.26 2.48.28 4.65-.38 7.05q-2.05 7.39-1.6 15.05c.19 3.11 2.3 4.73 1.95 8q-.55 5.21-.96 7.39-.27 1.39.3 2.44a1 .99 56.9 0 0 1.49.32q.96-.74 2.31.19a1.02 1.02 0 0 1 .43.79c.08 2.5.62 6.51-.14 8.93-.42 1.35.2 3.25.2 4.14q.03 41.94.13 83.89c0 3.04 1.28 6.23 1.22 9.62a1.04 1.04 0 0 0 .17.57c4.86 7.23 2.52 13.44-3.62 18.71a1.02.99 77.7 0 0-.31.5c-.62 2.34.33 5.36-.86 7.18a1.02.98-29.7 0 0-.16.54q-.04 4.42.21 8.86c.15 2.63-.94 5.15.01 8.18a1 .98 54.7 0 1-.14.88q-.99 1.37-2.67 1.31a.65.64-81.7 0 0-.65.49q-.25 1.07-1.15-1.05a1 1 0 0 0-.99-.6q-.81.06-1.24.94c-23.5-13.56-52.38-16.84-79.21-16.54-1.04-.27-4.51.03-4.28-.58a.33.3-78.8 0 1 .29-.21l.95-.04q1.25-.04.21-.75-.66-.44.57-.62a.99.98 89.3 0 0 .85-.88l.25-2.22a.97.95-21.6 0 1 .25-.56c4.94-5.41 4.74-17.22 3.69-23.6-.69-4.21-.48-7.03-.48-10.87q.03-17.65-.84-35.26c-.2-4.06-.07-8.62.15-12.77.13-2.39-.3-4.63-.06-7.12q.21-2.2 0-4.41c-.35-3.75-.14-8.36.14-12.28.17-2.3-.5-4.35-.14-6.71q.48-3.25-.24-6.53a1 .96 50.1 0 1 .04-.58c1.35-3.5.82-10.18.95-14.07.1-3.35.16-8.92-.29-12.71-.66-5.65 2.17-9.86.91-15.19-.82-3.45-.25-6.86 1.3-10.01a1 1 0 0 1 .79-.56q1.3-.14 2.3-.93Z"/><path fill="#0077bd" d="M274.31 0h113.75q3.3 1.8 2.06 5.24a1.04.99 46.3 0 0 0 .65c1.07 3.24 1.35 6.03 2.21 10.18.84 4.06-1.3 6.2-2.28 9.21q-2.03 6.22-1.99 12.81a.96.91-28.2 0 1-.2.6q-1.06 1.43-.3 2.81.11.21.12.45c.42 11.98.21 23.76 1.56 35a.98.94-68.7 0 0 .21.51q4.85 5.96.42 12.45a.95.95 0 0 0-.17.51c-.55 10.58-1.07 20.51-1 31.69q.04 8.47-.05 22.14c-.02 4.18-1.16 7.28-.55 11.17q.26 1.67.18 3.2-.4 8.46-.77 16.97a1 .99 83.6 0 1-.73.92l-1.97.56a1.01 1-6.9 0 0-.73.92q-.03.91-.89.92-7.74.08-9.69.3-25.49-.03-34.43.4-11.39.54-18.3 2.2c-17.59 4.21-38.03 19.02-21.54 38.44 7.84 9.24 19.69 14.26 30.89 19.63q11.18 5.35 22.47 10.51c6.32 2.88 22.2 10.46 16.47 19.35-3.47 5.36-12.62 6.39-18.5 6.41-29.22.13-58.41.06-87.63-.02a.99.98-3.6 0 1-.98-.86l-.18-1.28a1.01 1-19.2 0 1 .49-1c31.33-18.38 33.06-57.91 1.7-76.99q.43-.88 1.24-.94a1 1 0 0 1 .99.6q.9 2.12 1.15 1.05a.65.64-81.7 0 1 .65-.49q1.68.06 2.67-1.31a1 .98 54.7 0 0 .14-.88c-.95-3.03.14-5.55-.01-8.18q-.25-4.44-.21-8.86a1.02.98-29.7 0 1 .16-.54c1.19-1.82.24-4.84.86-7.18a1.02.99 77.7 0 1 .31-.5c6.14-5.27 8.48-11.48 3.62-18.71a1.04 1.04 0 0 1-.17-.57c.06-3.39-1.22-6.58-1.22-9.62q-.1-41.95-.13-83.89c0-.89-.62-2.79-.2-4.14.76-2.42.22-6.43.14-8.93a1.02 1.02 0 0 0-.43-.79q-1.35-.93-2.31-.19a1 .99 56.9 0 1-1.49-.32q-.57-1.05-.3-2.44.41-2.18.96-7.39c.35-3.27-1.76-4.89-1.95-8q-.45-7.66 1.6-15.05c.66-2.4.12-4.57.38-7.05a1 .99 85.9 0 1 .74-.87l3.16-.81Z"/><path fill="#0169ae" d="M388.06 0h87q-1.09.5-2.32.58a1 1 0 0 0-.91 1.23q1.41 5.97 1.65 12.12.1 2.61-.89 5.91c-1.3 4.32-2.29 7.44-1.63 12.18.94 6.78-.72 13.12-.76 19.11-.04 4.43-.66 8.39 1.73 12.38a.99.98 30.7 0 1 .14.54q-.15 7.36.4 14.72c.17 2.2-.91 4.48-.5 6.9.76 4.35.74 8.52 1.47 12.84 1.06 6.29.98 11.78.17 18.08-.23 1.81.39 6.02-.6 7.33a1 1 0 0 0-.18.82q.79 3.56.22 7.11c-.4 2.5.04 5.27-.78 7.74q-.68 2.04-.97 3.95c-.47 3.14-2.37 5.23-3.22 7.53-1.93 5.2-2.67 11.74-3.81 17.21-.41 2-.51 5.42-1.71 8.04a.53.53 0 0 0 0 .42q.23.5-.49.55a.65.63 8.8 0 0-.55.39l-.1.24a1.01 1.01 0 0 1-.76.59l-4.16.7h-83q1.95-.22 9.69-.3.86-.01.89-.92a1.01 1-6.9 0 1 .73-.92l1.97-.56a1 .99 83.6 0 0 .73-.92q.37-8.51.77-16.97.08-1.53-.18-3.2c-.61-3.89.53-6.99.55-11.17q.09-13.67.05-22.14c-.07-11.18.45-21.11 1-31.69a.95.95 0 0 1 .17-.51q4.43-6.49-.42-12.45a.98.94-68.7 0 1-.21-.51c-1.35-11.24-1.14-23.02-1.56-35q-.01-.24-.12-.45-.76-1.38.3-2.81a.96.91-28.2 0 0 .2-.6q-.04-6.59 1.99-12.81c.98-3.01 3.12-5.15 2.28-9.21-.86-4.15-1.14-6.94-2.21-10.18a1.04.99 46.3 0 1 0-.65q1.24-3.44-2.06-5.24Z"/><path fill="#015fa2" d="m475.06 0 167.77-.01q3.77 3.44-.23 6.98a1.01.99-21.8 0 0-.34.77q.11 5.27.95 10.48.26 1.59.07 3.56c-.28 2.8.25 6.6.27 8.32q.07 4.97.15 9.94c.03 1.68.95 3.28.84 4.97q-.25 3.96-.05 6.94c.13 1.89-.68 3.34-.73 5.17-.1 3.74-1.37 6.18-1.56 9.61q-.53 9.3-2.42 18.43c-.47 2.27.01 4.15-.13 6.44-.38 6.25-.35 12.41-2.07 18.19q-.53 1.81-.32 3.95.24 2.39-1.78 2.79a1 1 0 0 0-.76 1.28q.3.94 1.09 1.75a.98.93 21.2 0 1 .28.59l.34 2.99a.81.79 86 0 1-.76.89q-.53.02-.35-.4.31-.72-.46-.56c-2.5.53-1.51 5.88-1.08 7.55a1.07 1-47 0 1 0 .53q-1.07 3.69.01 7.4a.95.91-47.2 0 1 .01.55c-.95 3.27-.16 6.66-.38 9.66q-.29 3.94.33 7.91a.33.32 78.5 0 1-.24.37c-.42.1.09 14.34.16 15.87a.34.32 77.2 0 1-.19.32c-.23.1-.34 25.36-.32 27.53a1 1 0 0 0 .66.94q2.73.98 2.18 3.89a.98.95-52.9 0 0 .07.59q.64 1.47.75 3.01a.33.32 78.9 0 0 .42.29l.34-.1a.81.79-20.1 0 1 .97.44q1.11 2.56-.91 1.58a1.01 1-57.5 0 0-1.21.27l-.81 1a.99.98-49.5 0 0 .1 1.37c3.21 2.88 5.08 11.22 4.86 15.41a1.03 1.02 26.8 0 0 .24.71q1.24 1.45 1.87.25.4-.75.5.09.32 2.76 1.82 4.74.61.81 1.39.57a1.01.99 74.7 0 1 1.26.73q.41 1.72 1.98 2.61a.82.8 43.1 0 0 .82-.02q.75-.47.33 1.12-12.44 16.39-25 32.71c-2.65 3.45-2.76 4-5.52.13q-21.51-30.22-42.69-60.68c-1.84-2.65-3.42-3.92-6.58-3.92q-43.52.02-87.28-.01a1 1 0 0 1-1-1.01q.12-11.34.01-22.03c-.05-4.55-2.65-5.92-6.94-6.03q-9.66-.25-19.29-.2l4.16-.7a1.01 1.01 0 0 0 .76-.59l.1-.24a.65.63 8.8 0 1 .55-.39q.72-.05.49-.55a.53.53 0 0 1 0-.42c1.2-2.62 1.3-6.04 1.71-8.04 1.14-5.47 1.88-12.01 3.81-17.21.85-2.3 2.75-4.39 3.22-7.53q.29-1.91.97-3.95c.82-2.47.38-5.24.78-7.74q.57-3.55-.22-7.11a1 1 0 0 1 .18-.82c.99-1.31.37-5.52.6-7.33.81-6.3.89-11.79-.17-18.08-.73-4.32-.71-8.49-1.47-12.84-.41-2.42.67-4.7.5-6.9q-.55-7.36-.4-14.72a.99.98 30.7 0 0-.14-.54c-2.39-3.99-1.77-7.95-1.73-12.38.04-5.99 1.7-12.33.76-19.11-.66-4.74.33-7.86 1.63-12.18q.99-3.3.89-5.91-.24-6.15-1.65-12.12a1 1 0 0 1 .91-1.23q1.23-.08 2.32-.58Z"/><path fill="#015496" d="M642.83-.01 800 0v450H641.44l.47-9.51a1.04.92-30.1 0 1 .17-.51c2.07-3.07 1.14-6.54 2.67-10 .77-1.73.64-3.06-.13-4.65a.98.97-53.8 0 1-.09-.59q.66-4.18-1.25-8.03a1.01.96-56.2 0 1-.1-.58c.47-3.35-.64-6.15-.56-9.37.09-3.48-1.03-6.76-1.03-9.96q-.02-13.1-.01-26.2c.01-9.38 1.2-22.69.6-34.14-.35-6.84.88-14.32.1-19.77-.67-4.79-.09-9.38-2-13.9a1.03 1.03 0 0 1 0-.76q1.37-3.43-.07-6.88a.98.95 41.1 0 1-.05-.59q.5-2.32-.17-4.59a1 1 0 0 0-.96-.72c-1.63 0-6.24.81-6.53-1.46q1.31-.76 2.82-2.72 28.57-37.19 56.61-74.8 1.1-1.48-.74-1.6-6.08-.39-12.31-.07c-3.51.17-5.28 1.37-7.25 4.04q-7.12 9.68-20.84 27.61.42-1.59-.33-1.12a.82.8 43.1 0 1-.82.02q-1.57-.89-1.98-2.61a1.01.99 74.7 0 0-1.26-.73q-.78.24-1.39-.57-1.5-1.98-1.82-4.74-.1-.84-.5-.09-.63 1.2-1.87-.25a1.03 1.02 26.8 0 1-.24-.71c.22-4.19-1.65-12.53-4.86-15.41a.99.98-49.5 0 1-.1-1.37l.81-1a1.01 1-57.5 0 1 1.21-.27q2.02.98.91-1.58a.81.79-20.1 0 0-.97-.44l-.34.1a.33.32 78.9 0 1-.42-.29q-.11-1.54-.75-3.01a.98.95-52.9 0 1-.07-.59q.55-2.91-2.18-3.89a1 1 0 0 1-.66-.94c-.02-2.17.09-27.43.32-27.53a.34.32 77.2 0 0 .19-.32c-.07-1.53-.58-15.77-.16-15.87a.33.32 78.5 0 0 .24-.37q-.62-3.97-.33-7.91c.22-3-.57-6.39.38-9.66a.95.91-47.2 0 0-.01-.55q-1.08-3.71-.01-7.4a1.07 1-47 0 0 0-.53c-.43-1.67-1.42-7.02 1.08-7.55q.77-.16.46.56-.18.42.35.4a.81.79 86 0 0 .76-.89l-.34-2.99a.98.93 21.2 0 0-.28-.59q-.79-.81-1.09-1.75a1 1 0 0 1 .76-1.28q2.02-.4 1.78-2.79-.21-2.14.32-3.95c1.72-5.78 1.69-11.94 2.07-18.19.14-2.29-.34-4.17.13-6.44q1.89-9.13 2.42-18.43c.19-3.43 1.46-5.87 1.56-9.61.05-1.83.86-3.28.73-5.17q-.2-2.98.05-6.94c.11-1.69-.81-3.29-.84-4.97q-.08-4.97-.15-9.94c-.02-1.72-.55-5.52-.27-8.32q.19-1.97-.07-3.56-.84-5.21-.95-10.48a1.01.99-21.8 0 1 .34-.77q4-3.54.23-6.98Z"/><path fill="#fff" d="M184.75 179.46c26.83-.3 55.71 2.98 79.21 16.54 31.36 19.08 29.63 58.61-1.7 76.99a1.01 1-19.2 0 0-.49 1l.18 1.28a.99.98-3.6 0 0 .98.86c29.22.08 58.41.15 87.63.02 5.88-.02 15.03-1.05 18.5-6.41 5.73-8.89-10.15-16.47-16.47-19.35q-11.29-5.16-22.47-10.51c-11.2-5.37-23.05-10.39-30.89-19.63-16.49-19.42 3.95-34.23 21.54-38.44q6.91-1.66 18.3-2.2 8.94-.43 34.43-.4h83q9.63-.05 19.29.2c4.29.11 6.89 1.48 6.94 6.03q.11 10.69-.01 22.03a1 1 0 0 0 1 1.01q43.76.03 87.28.01c3.16 0 4.74 1.27 6.58 3.92q21.18 30.46 42.69 60.68c2.76 3.87 2.87 3.32 5.52-.13q12.56-16.32 25-32.71 13.72-17.93 20.84-27.61c1.97-2.67 3.74-3.87 7.25-4.04q6.23-.32 12.31.07 1.84.12.74 1.6-28.04 37.61-56.61 74.8-1.51 1.96-2.82 2.72c-1.08.34-2.21.71-3.37.71q-81.97-.08-163.96.11c-11.92-.34-25.22-1.58-29.9-15.31q-1.24-3.63-1.27-12.75-.1-33.63-.31-66.29-.02-2.47-2.49-2.47-31.92-.1-62.88.25c-7.96.08-23.92.84-23.4 12.7a.96.96 0 0 0 .21.57q4.4 5.68 10.94 8.88 19.4 9.51 38.73 19.15c10.86 5.42 28.28 15.23 27.16 29.33-1.08 13.68-15.9 20.74-27.46 23.54q-11.06 2.29-18 2.29-90.5 0-181 .21c-28.1-.62-55.33-.25-84.5-.18q-4.11.01-4.79-4.03l-.25-75q.07-11.11.04-22.29c-.02-5.1.8-7.85 6.44-7.86q55.21-.09 72.31.11Zm41.79 27.51q-13.26-10.8-30.31-13.52-19.64-3.12-39.56-2.2-2.01.1-2.93.34a2 1.97-7.7 0 0-1.48 1.91v81.92a1 .99-88.2 0 0 .93 1c25.43 1.6 65.44.76 80.77-23.7 9.06-14.45 6.23-34.63-7.42-45.75Zm256.24 59.95c.04 7.47 4.33 10.15 11.47 10.14q39.77-.04 78.87-.07 2.02 0 .8-1.6l-40.54-53.28q-1.41-1.86-3.88-1.86h-45.7a1.01 1.01 0 0 0-1.01 1q-.1 22.93-.01 45.67Z"/><path fill="#007dc3" d="M226.54 206.97c13.65 11.12 16.48 31.3 7.42 45.75-15.33 24.46-55.34 25.3-80.77 23.7a1 .99-88.2 0 1-.93-1V193.5a2 1.97-7.7 0 1 1.48-1.91q.92-.24 2.93-.34 19.92-.92 39.56 2.2 17.05 2.72 30.31 13.52Z"/><path fill="#0169ae" d="M465.17 288.61q1.82 1.25 5.9 2.07 1.96.39 3.64 2.79a1.02 1 40.9 0 1 .08 1.02q-1.88 3.75 1.56 6.2 1.48 1.05.77 3.18-.34 1.03.24 2.85.08.24.03.49c-.93 5.01 2.87 7.32 4.69 11.64 1.87 4.45-3.4 7.49 2.77 11.64a.98.96 14.3 0 1 .44.73q.29 2.93.99 5.77c.26 1.05-.17 2.14-.17 3.08q.09 30.73.01 61.48c-.01 2.48.31 6.76.03 10.06-.26 3.21.1 6.14-.07 9.31-.1 1.85 1.15 3.12 1.1 5.02q-.15 6.9.08 13.82c.11 3.21-1.19 5.03-3.75 6.56a1 .99 61.5 0 0-.38 1.3l.68 1.38a1.01 1-21.1 0 0 1.19.52q2.58-.78 4.94.48h-83.5q-.23-1.94-1.8-2.64a1 1 0 0 1-.59-.97q.41-7.54-.57-14.21c-.49-3.36.91-5.61-.67-9.22a1.02 1.02 0 0 1 0-.82q1.6-3.48-.18-6.74a1 .99 43.4 0 1-.03-.91c1.76-3.7.57-6.13.86-9.75q.15-1.79.07-3.58c-.15-3.46.66-6.7.38-10.16-.1-1.24.36-2.67.24-3.69q-1.41-11.67 1.3-23.13a.93.93 0 0 0-.08-.67q-.65-1.32.03-2.49a1.02 1 42 0 0-.07-1.11c-1.28-1.67-.83-3.56-1.1-4.96q-1.11-5.84-1.91-11.7c-.18-1.35-.99-3.33-.43-5.08q.95-2.95.97-3.08.41-2.43.93-4.84.36-1.65-1.15-3.39-.73-.84-1.56-.47a.8.8 0 0 1-1.11-.58q-.45-2.27 1.91-2.77a1.01 1-89 0 0 .77-.75l1.38-5.91q.05-.24-.01-.48-.48-1.84.49-3.44a1.04 1.01-34.5 0 0 .13-.66l-1.22-8.57a1 .98-69.2 0 0-.21-.48q-5.95-7.43-8.71-16.54c11.56-2.8 26.38-9.86 27.46-23.54 1.12-14.1-16.3-23.91-27.16-29.33q-19.33-9.64-38.73-19.15-6.54-3.2-10.94-8.88a.96.96 0 0 1-.21-.57c-.52-11.86 15.44-12.62 23.4-12.7q30.96-.35 62.88-.25 2.47 0 2.49 2.47.21 32.66.31 66.29.03 9.12 1.27 12.75c4.68 13.73 17.98 14.97 29.9 15.31Z"/><path fill="#015fa2" d="M494.25 277.06c-7.14.01-11.43-2.67-11.47-10.14q-.09-22.74.01-45.67a1.01 1.01 0 0 1 1.01-1h45.7q2.47 0 3.88 1.86l40.54 53.28q1.22 1.6-.8 1.6-39.1.03-78.87.07Z"/><path fill="#0187ce" d="M106.21 284.5q.68 4.04 4.79 4.03c29.17-.07 56.4-.44 84.5.18q-11.12.07-22.24.04-.27-.01-.52.04-3.94.77-.75.77.96 0 .09.4-1.43.65 1.44 1.34a1.06 1.04-9.5 0 1 .6.42q1.24 1.89 3.44 2.73a.99.98 87.4 0 1 .53.49l2.39 4.84a1 .98 40.8 0 1 .06.74q-.72 2.33.16 5.53c.39 1.43-.9 3.13-1.13 4.39q-.32 1.78-.67 4.6-.62 5.09.92 9.66.61 1.83 1.75.28l.38-.51a.33.32-51.4 0 0-.04-.43l-.24-.23a.21.2 54.5 0 1 .05-.34q2.99-1.34.21-1.88-.36-.07.01-.4l.22-.2a.26.26 0 0 0 .06-.3q-1.49-3.41-.91-7.1a1.02 1-15.9 0 1 .34-.6q.71-.61.27-1.4a1.01 1.01 0 0 1 .07-1.07q.4-.55.25-1.17a1.01 1.01 0 0 1 .91-1.24l.73-.04a1.02.98 62.5 0 1 .73.25c5.4 4.85 2.71 18.11.25 24.2a1.02.99-40.8 0 0-.05.57q1.05 5.37.57 7.58c-.88 4.07.54 7.72-.46 11.92a.98.97 34.2 0 0 .16.81q.84 1.16-.09 2.32a1 1 0 0 0-.07 1.15q1.04 1.7-.43 1.95a1 1 0 0 0-.83 1.03l.52 12.53a1.05 1.04 61.4 0 1-.18.62q-1.29 1.84-.08 3.83a1 .96 32.8 0 1 .14.6q-.29 3.78-.09 7.54c.36 6.69.57 13.11.17 19.47-.13 2.06-.65 13.23.24 13.39a.41.41 0 0 1 .31.56q-.68 1.66-.68 2.11-.02 13.34 0 27.23a1.01.99 76.1 0 1-.52.88c-2.01 1.1-4.37.42-6.09.68q-1.74.26-3.46.71h-91.5q1.83-4.31.97-9.01a.99.97-40.4 0 1 .05-.53q1.54-4.08 1.24-8.36c-.15-2.25.96-4.48.25-6.48q-.78-2.19-1.13-4.88-.4-3.06 2.64-3.02l3.33.04a.99.98 15.5 0 0 .87-.49q2.98-5.03 2.66-10.87c-.15-2.94.83-5.26.79-8.18q-.03-2.15.5-3.87 1.8-5.83.84-10.87-.55-2.89.02-5.03a1 .99-66.3 0 1 1.5-.59q.99.64 2.07-.03a.97.97 0 0 0 .47-.85c-.01-2.25 1.02-7.82-1.99-7.95a1 1 0 0 1-.95-.88q-.19-1.69-.06-2.1c2.36-7.47-.17-15.72 0-21.8.19-7.21-.38-13.71.59-20.66.44-3.15.25-6.27.61-9.45.45-3.95-1.41-6.44 1.93-9.96a.99.97 65.7 0 0 .27-.75q-.19-2.88 1.05-5.44a1.01.98-38.8 0 0 .08-.64q-.44-2.16-.75-4.3c-.42-2.92.8-5.46.22-8.68q-.05-.26.04-.51l.97-2.79a.79.78-2.7 0 1 .43-.47q.88-.39 1.22.61a1.01.97 6.2 0 0 .46.55q.76.42.63 1.19-.14.81.51.32l.42-.31q.68-.51.41.3-.6 1.74.61 1.24Z"/><path fill="#0077bd" d="M394.5 286.21q2.76 9.11 8.71 16.54a1 .98-69.2 0 1 .21.48l1.22 8.57a1.04 1.01-34.5 0 1-.13.66q-.97 1.6-.49 3.44.06.24.01.48l-1.38 5.91a1.01 1-89 0 1-.77.75q-2.36.5-1.91 2.77a.8.8 0 0 0 1.11.58q.83-.37 1.56.47 1.51 1.74 1.15 3.39-.52 2.41-.93 4.84-.02.13-.97 3.08c-.56 1.75.25 3.73.43 5.08q.8 5.86 1.91 11.7c.27 1.4-.18 3.29 1.1 4.96a1.02 1 42 0 1 .07 1.11q-.68 1.17-.03 2.49a.93.93 0 0 1 .08.67q-2.71 11.46-1.3 23.13c.12 1.02-.34 2.45-.24 3.69.28 3.46-.53 6.7-.38 10.16q.08 1.79-.07 3.58c-.29 3.62.9 6.05-.86 9.75a1 .99 43.4 0 0 .03.91q1.78 3.26.18 6.74a1.02 1.02 0 0 0 0 .82c1.58 3.61.18 5.86.67 9.22q.98 6.67.57 14.21a1 1 0 0 0 .59.97q1.57.7 1.8 2.64h-232.5q1.72-.45 3.46-.71c1.72-.26 4.08.42 6.09-.68a1.01.99 76.1 0 0 .52-.88q-.02-13.89 0-27.23 0-.45.68-2.11a.41.41 0 0 0-.31-.56c-.89-.16-.37-11.33-.24-13.39.4-6.36.19-12.78-.17-19.47q-.2-3.76.09-7.54a1 .96 32.8 0 0-.14-.6q-1.21-1.99.08-3.83a1.05 1.04 61.4 0 0 .18-.62l-.52-12.53a1 1 0 0 1 .83-1.03q1.47-.25.43-1.95a1 1 0 0 1 .07-1.15q.93-1.16.09-2.32a.98.97 34.2 0 1-.16-.81c1-4.2-.42-7.85.46-11.92q.48-2.21-.57-7.58a1.02.99-40.8 0 1 .05-.57c2.46-6.09 5.15-19.35-.25-24.2a1.02.98 62.5 0 0-.73-.25l-.73.04a1.01 1.01 0 0 0-.91 1.24q.15.62-.25 1.17a1.01 1.01 0 0 0-.07 1.07q.44.79-.27 1.4a1.02 1-15.9 0 0-.34.6q-.58 3.69.91 7.1a.26.26 0 0 1-.06.3l-.22.2q-.37.33-.01.4 2.78.54-.21 1.88a.21.2 54.5 0 0-.05.34l.24.23a.33.32-51.4 0 1 .04.43l-.38.51q-1.14 1.55-1.75-.28-1.54-4.57-.92-9.66.35-2.82.67-4.6c.23-1.26 1.52-2.96 1.13-4.39q-.88-3.2-.16-5.53a1 .98 40.8 0 0-.06-.74l-2.39-4.84a.99.98 87.4 0 0-.53-.49q-2.2-.84-3.44-2.73a1.06 1.04-9.5 0 0-.6-.42q-2.87-.69-1.44-1.34.87-.4-.09-.4-3.19 0 .75-.77.25-.05.52-.04 11.12.03 22.24-.04 90.5-.21 181-.21 6.94 0 18-2.29Z"/><path fill="#015fa2" d="M632.5 287.79c.29 2.27 4.9 1.46 6.53 1.46a1 1 0 0 1 .96.72q.67 2.27.17 4.59a.98.95 41.1 0 0 .05.59q1.44 3.45.07 6.88a1.03 1.03 0 0 0 0 .76c1.91 4.52 1.33 9.11 2 13.9.78 5.45-.45 12.93-.1 19.77.6 11.45-.59 24.76-.6 34.14q-.01 13.1.01 26.2c0 3.2 1.12 6.48 1.03 9.96-.08 3.22 1.03 6.02.56 9.37a1.01.96-56.2 0 0 .1.58q1.91 3.85 1.25 8.03a.98.97-53.8 0 0 .09.59c.77 1.59.9 2.92.13 4.65-1.53 3.46-.6 6.93-2.67 10a1.04.92-30.1 0 0-.17.51l-.47 9.51h-151.5q-2.36-1.26-4.94-.48a1.01 1-21.1 0 1-1.19-.52l-.68-1.38a1 .99 61.5 0 1 .38-1.3c2.56-1.53 3.86-3.35 3.75-6.56q-.23-6.92-.08-13.82c.05-1.9-1.2-3.17-1.1-5.02.17-3.17-.19-6.1.07-9.31.28-3.3-.04-7.58-.03-10.06q.08-30.75-.01-61.48c0-.94.43-2.03.17-3.08q-.7-2.84-.99-5.77a.98.96 14.3 0 0-.44-.73c-6.17-4.15-.9-7.19-2.77-11.64-1.82-4.32-5.62-6.63-4.69-11.64q.05-.25-.03-.49-.58-1.82-.24-2.85.71-2.13-.77-3.18-3.44-2.45-1.56-6.2a1.02 1 40.9 0 0-.08-1.02q-1.68-2.4-3.64-2.79-4.08-.82-5.9-2.07 81.99-.19 163.96-.11c1.16 0 2.29-.37 3.37-.71Z"/></svg>