<svg xmlns="http://www.w3.org/2000/svg" viewBox="0 0 800 600"><g fill="none" stroke-width="2"><path stroke="#f5f5f5" d="M794.19 600c1.32-.31 5.05-.11 5.2-.51a.45.37 7.8 0 0-.45-.49H1.59c-.49 0-2.4.16-.65 1" vector-effect="non-scaling-stroke"/><path stroke="#81acd3" d="M155.48 181.39q-5.48-1.54-9.29 2.05-5.45 5.12-19.54 21.78" vector-effect="non-scaling-stroke"/><path stroke="#87bcdf" d="m126.65 205.22-24.4 27.49" vector-effect="non-scaling-stroke"/><path stroke="#92d0ee" d="M102.25 232.71q-3.49 3.67-6.87 7.43c-3.83 4.27-4.25 8.1-4.34 14.11q-.27 16.86.58 33.78" vector-effect="non-scaling-stroke"/><path stroke="#f9b492" d="M91.62 288.03q-.82 5.91 3.44 10.66 12.3 13.69 24.91 27.15" vector-effect="non-scaling-stroke"/><path stroke="#fccc90" d="M119.97 325.84c3.31 3.67 27.21 30.74 29.64 30.76" vector-effect="non-scaling-stroke"/><path stroke="#ffe18d" d="M149.61 356.6c.72.3 1.52.71 2.24.73q17.83.55 35.67-.19" vector-effect="non-scaling-stroke"/><path stroke="#819fbc" d="M187.52 357.14c4.74 1.22 8.31-1.39 11.24-4.89" vector-effect="non-scaling-stroke"/><path stroke="#86b7dc" d="m198.76 352.25 43.04-48.54" vector-effect="non-scaling-stroke"/><path stroke="#92d0ee" d="M241.8 303.71c2.63-2.96 8.77-8.89 8.94-12.71q.49-11.21-.3-38.83" vector-effect="non-scaling-stroke"/><path stroke="#f9b492" d="M250.44 252.17q1.58-6.88-3.75-12.86-13.62-15.26-27.69-30.1" vector-effect="non-scaling-stroke"/><path stroke="#fdd48f" d="M219 209.21c-4.05-4.52-23.58-27.64-27.99-27.99q-11.43-.9-35.53.17" vector-effect="non-scaling-stroke"/><path stroke="#f78821" d="M219 209.21q-2.08 1.82-2.75 4.37c-1.02 3.87-16.95 30.6-16.06 31.91a.67.39 48.4 0 1 .12.58l-3.24 6.25a.37.32 11.4 0 1-.32.18h-.25a.59.49-74.4 0 0-.45.31l-3.55 6.9" vector-effect="non-scaling-stroke"/><path stroke="#fdd48f" d="M192.5 259.71q-8.23-3.51-11.29-10.94-4.54-11.03-9.19-28.13a.95.72 86.5 0 0-.54-.63q-.25-.08-.48-.05" vector-effect="non-scaling-stroke"/><path stroke="#7f8062" d="M171 219.96q.39-.97.25-1.46-6.4-21.39-9.72-29.72-1.22-3.08-6.05-7.39" vector-effect="non-scaling-stroke"/><path stroke="#92d0ee" d="m216.6 269.17-16.53 6.66" vector-effect="non-scaling-stroke"/><path stroke="#86b7dc" d="M200.07 275.83c-9.35 3.47-16.67 6.79-20.09 16.66q-4.69 13.53-8.77 27.26" vector-effect="non-scaling-stroke"/><path stroke="#ffe18d" d="m171.21 319.75-.92-1.75" vector-effect="non-scaling-stroke"/><path stroke="#fccc90" d="M170.29 318q-5.16-18.15-8.31-26.24-4.45-11.45-17.29-14.84" vector-effect="non-scaling-stroke"/><path stroke="#f9b492" d="m144.69 276.92-18.94-7.46" vector-effect="non-scaling-stroke"/><path stroke="#92d0ee" d="m125.75 269.46 18-7.25" vector-effect="non-scaling-stroke"/><path stroke="#8c8581" d="M250.44 252.17q-4.56 5.42-11.13 8.14-13.18 5.47-22.71 8.86" vector-effect="non-scaling-stroke"/><path stroke="#f9b492" d="m216.6 269.17-24.1-9.46" vector-effect="non-scaling-stroke"/><path stroke="#81acd3" d="M171 219.96 166.71 233" vector-effect="non-scaling-stroke"/><path stroke="#0968b3" d="M166.71 233q-.32-2-2.06-2.77-.48-.21-.78-.57-.98-1.17-2.28-2.01c-5.59-3.64-10.63-8.17-16.2-11.31-4.5-2.54-8.6-4.75-13.23-7.94q-2.58-1.77-5.51-3.18" vector-effect="non-scaling-stroke"/><path stroke="#87bcdf" d="M166.71 233c-4.54 16.58-7.51 23.48-22.96 29.21" vector-effect="non-scaling-stroke"/><path stroke="#1a8dce" d="M143.75 262.21q-.68-3.96-4.51-6.69c-5.47-3.91-11.48-7.04-16.16-10.26q-10.02-6.91-20.83-12.55" vector-effect="non-scaling-stroke"/><path stroke="#8c8581" d="M125.75 269.46q-8.84 2.65-17.35 6.21c-7.39 3.09-13.25 4.47-16.78 12.36" vector-effect="non-scaling-stroke"/><path stroke="#f68123" d="M144.69 276.92q-.12.89-.45.9a.57.22.2 0 0-.54.21q-.05.29.08.49a.99.4 51.8 0 1 .22.76q-2.6 6.74-6.39 12.86a.33.29-51 0 0 .01.37q.1.11.27.1.32-.03.19.21l-9.97 18.79q-.07.11-.08-.03l-.02-.19q-.06-.52-.34.04l-4.16 8.32a1.33.91 53.7 0 0 .03.97q.16.4.07.87-.64 3.24-3.64 4.25" vector-effect="non-scaling-stroke"/><path stroke="#075798" d="M198.76 352.25q-9.16-4.42-17.58-10.19-.81-.55-3.14-.81" vector-effect="non-scaling-stroke"/><path stroke="#859969" d="m178.04 341.25-6.83-21.5" vector-effect="non-scaling-stroke"/><path stroke="#1988cb" d="M241.8 303.71q-1.47-2.25-3.93-3.17-3.43-1.29-3.98-1.61c-8.23-4.75-16.59-9.39-24.14-15.2q-3.2-2.46-7.56-4.17-2.01-.79-2.12-3.73" vector-effect="non-scaling-stroke"/><path stroke="#808149" d="M178.04 341.25c1.5 6.42 4.11 12 9.48 15.89" vector-effect="non-scaling-stroke"/><path stroke="#fcae1e" d="M170.29 318q-.01.99-.78 1.39-.5.25-.74.62l-2.83 4.17q-.25.37-.33.97c-.53 3.96-3.28 5.11-4.66 8.1q-2.76 6.02-5.75 11.91c-1.58 3.11-3.23 7.76-5.59 11.44" vector-effect="non-scaling-stroke"/><path stroke="gray" d="M293.65 245.01c-1.54 11.78 3.23 20.04 14.42 24.18q16.23 5.99 20.87 7.86c12.89 5.16 7.38 21.93-3.69 24.45q-14.95 3.41-26.14-7.72a.57.55-46.4 0 0-.81.03l-7.22 8.02a.6.59-45 0 0-.01.81c18.59 19.91 59.58 14.91 56.45-19.17-2.25-24.44-44.02-19.73-42.8-34.24 1.49-17.6 22.73-15.11 32.08-6.65a.54.5-47.4 0 0 .72-.06l7.16-7.59a.68.43 45.3 0 0-.17-.77c-14.23-14.77-47.61-13.98-50.86 10.85m207.6-7.76h25a.57.5 0 0 0 .57-.5l.01-11a.58.5 0 0 0-.58-.5h-63.5a.5.49-90 0 0-.49.5l.04 11a.7.58 0 0 0 .7.58l25-.06a.5.48 0 0 1 .5.48V313a.5.5 0 0 0 .5.5h11.25a.51.5 0 0 0 .51-.5l.04-75.25a.5.45 90 0 1 .45-.5m-118.51 65.12c-6.98 1.64-11.73 1.72-11.72-7.16q.01-16.5-.08-33.07a.63.57 89.5 0 1 .57-.64h10.24a.5.5 0 0 0 .5-.5v-8.75a.5.5 0 0 0-.5-.5h-10.5a.75.46-90 0 1-.46-.75l.17-18a.37.37-13.1 0 0-.53-.33l-10.44 5.05a.94.84 78.6 0 0-.48.82q-.02 29.73 0 59.46c.01 12.16 10.82 18.96 22.08 15.17a.83.68-8.7 0 0 .54-.6l1.14-9.82a.43.37-4.9 0 0-.53-.38m43.2-26.18q-8.01.03-16 .16c-13.44.22-19.83 10.44-17.91 22.88 3.4 22.15 32.12 14.76 45.45 9.95a.71.71 80.1 0 0 .47-.67q.16-15.3-.01-30.57-.12-11.27-.59-13.43c-3.98-18.43-33.33-19.64-43.12-6.22a.62.52-49.6 0 0 0 .74l6.83 7.16a.48.4-49.3 0 0 .67-.11q3.84-5.31 10.51-5.7c11.89-.69 14.87 4.2 14.23 15.3a.54.53-88.3 0 1-.53.51m127.35-13.48c16.12-3.35 22.38-2.36 22.43 15.52q.05 17.4.12 34.86a.66.41 90 0 0 .41.66H587a.5.5 0 0 0 .5-.5v-48a.87.74-17.1 0 1 .44-.69c9.72-5.56 22.84-6.51 22.82 8.94q-.03 19.71.01 39.45a.56.48-90 0 0 .48.56l10.43.03a.6.47-.5 0 0 .6-.48q-.02-19.98-.06-39.97c-.05-28.54-21.05-26.45-39.98-17.51a.71.69 55.5 0 1-.8-.16c-9.9-10.34-28.57-4.71-39.89-1.14a.77.75-9 0 0-.54.72l-.09 58a.6.52 90 0 0 .52.6l10.57.02a.62.45-89.6 0 0 .46-.62l.22-49.81a.75.43-8.9 0 1 .6-.48m93.52 24.85c12.24-.16 28.55 3.03 33.3-12.67 2.79-9.21-1.13-21.88-11.37-24.37-13.71-3.35-33.35.6-33.96 18.47q-.16 4.65-.02 20.75.08 9.38 1.68 13.14c4.32 10.13 15.34 11.95 25.5 11.25q10.37-.72 16.46-8.53a.62.54-48.1 0 0 .01-.76l-6.95-7.3a.46.37-51.2 0 0-.64.14c-3.9 6-10.72 6.42-17.3 5.16-8.1-1.55-7.46-8.39-7.23-14.78a.52.52-88.9 0 1 .52-.5m46.96-30.03c-6.96 9.69-3.76 26.44 10.57 28.27 4.18.54 16.25.78 18.58 4.5 3.65 5.83-.63 11.49-6.66 12.69q-11.92 2.36-20.85-5.71a.53.42 42 0 0-.67-.04l-6.94 7.57a.58.54 44.3 0 0 .04.76c11.95 12.48 45.07 13.72 47.49-8.93 1.13-10.51-4.07-18.75-14.98-19.99-4.43-.51-11.15-.66-14.59-2.07-5.58-2.28-5.7-9.83-.66-12.71 6.27-3.57 15.37-1.35 20.5 2.56a.57.52-50.5 0 0 .74-.1l6.46-7.28a.85.83-51.1 0 0-.12-1.24c-10.45-7.55-30.46-10.04-38.91 1.72" vector-effect="non-scaling-stroke"/><path stroke="gray" d="M462.31 264.5a1.74 1.61 87.3 0 1 1.44-1.72l14-1.43a.61.55 87.4 0 0 .5-.6v-10.5a.51.48.6 0 0-.5-.48q-13.6-.39-26.24 4.48a.81.8 79.3 0 0-.51.75v58a.5.5 0 0 0 .5.5h10.24a.69.55-90 0 0 .55-.69l.02-48.31m64.19-13.76a.27.27 0 0 0-.27-.27h-10.88a.27.27 0 0 0-.27.27v62.5a.27.27 0 0 0 .27.27h10.88a.27.27 0 0 0 .27-.27v-62.5M406.68 301.8q1.88 1.36 4.32 1.44 7.44.25 14.74-1.31a.63.38-8.9 0 0 .51-.43v-15a.6.54 0 0 0-.6-.54q-6.75-.01-13.44.17c-8.86.24-12.57 10.61-5.53 15.67m239.76-23.99c7.1 0 21.57 2.6 22.82-7.53 1.43-11.58-12.75-11.26-19.51-7.42-4.75 2.7-3.59 10.03-3.77 14.47a.46.46-88.8 0 0 .46.48" vector-effect="non-scaling-stroke"/></g><path fill="#fff" d="M0 0h800v600h-5.81c1.32-.31 5.05-.11 5.2-.51a.45.37 7.8 0 0-.45-.49H1.59c-.49 0-2.4.16-.65 1H0V0Zm155.48 181.39q-5.48-1.54-9.29 2.05-5.45 5.12-19.54 21.78l-24.4 27.49q-3.49 3.67-6.87 7.43c-3.83 4.27-4.25 8.1-4.34 14.11q-.27 16.86.58 33.78-.82 5.91 3.44 10.66 12.3 13.69 24.91 27.15c3.31 3.67 27.21 30.74 29.64 30.76.72.3 1.52.71 2.24.73q17.83.55 35.67-.19c4.74 1.22 8.31-1.39 11.24-4.89l43.04-48.54c2.63-2.96 8.77-8.89 8.94-12.71q.49-11.21-.3-38.83 1.58-6.88-3.75-12.86-13.62-15.26-27.69-30.1c-4.05-4.52-23.58-27.64-27.99-27.99q-11.43-.9-35.53.17Zm138.17 63.62c-1.54 11.78 3.23 20.04 14.42 24.18q16.23 5.99 20.87 7.86c12.89 5.16 7.38 21.93-3.69 24.45q-14.95 3.41-26.14-7.72a.57.55-46.4 0 0-.81.03l-7.22 8.02a.6.59-45 0 0-.01.81c18.59 19.91 59.58 14.91 56.45-19.17-2.25-24.44-44.02-19.73-42.8-34.24 1.49-17.6 22.73-15.11 32.08-6.65a.54.5-47.4 0 0 .72-.06l7.16-7.59a.68.43 45.3 0 0-.17-.77c-14.23-14.77-47.61-13.98-50.86 10.85Zm207.6-7.76h25a.57.5 0 0 0 .57-.5l.01-11a.58.5 0 0 0-.58-.5h-63.5a.5.49-90 0 0-.49.5l.04 11a.7.58 0 0 0 .7.58l25-.06a.5.48 0 0 1 .5.48V313a.5.5 0 0 0 .5.5h11.25a.51.5 0 0 0 .51-.5l.04-75.25a.5.45 90 0 1 .45-.5Zm-118.51 65.12c-6.98 1.64-11.73 1.72-11.72-7.16q.01-16.5-.08-33.07a.63.57 89.5 0 1 .57-.64h10.24a.5.5 0 0 0 .5-.5v-8.75a.5.5 0 0 0-.5-.5h-10.5a.75.46-90 0 1-.46-.75l.17-18a.37.37-13.1 0 0-.53-.33l-10.44 5.05a.94.84 78.6 0 0-.48.82q-.02 29.73 0 59.46c.01 12.16 10.82 18.96 22.08 15.17a.83.68-8.7 0 0 .54-.6l1.14-9.82a.43.37-4.9 0 0-.53-.38Zm43.2-26.18q-8.01.03-16 .16c-13.44.22-19.83 10.44-17.91 22.88 3.4 22.15 32.12 14.76 45.45 9.95a.71.71 80.1 0 0 .47-.67q.16-15.3-.01-30.57-.12-11.27-.59-13.43c-3.98-18.43-33.33-19.64-43.12-6.22a.62.52-49.6 0 0 0 .74l6.83 7.16a.48.4-49.3 0 0 .67-.11q3.84-5.31 10.51-5.7c11.89-.69 14.87 4.2 14.23 15.3a.54.53-88.3 0 1-.53.51Zm127.35-13.48c16.12-3.35 22.38-2.36 22.43 15.52q.05 17.4.12 34.86a.66.41 90 0 0 .41.66H587a.5.5 0 0 0 .5-.5v-48a.87.74-17.1 0 1 .44-.69c9.72-5.56 22.84-6.51 22.82 8.94q-.03 19.71.01 39.45a.56.48-90 0 0 .48.56l10.43.03a.6.47-.5 0 0 .6-.48q-.02-19.98-.06-39.97c-.05-28.54-21.05-26.45-39.98-17.51a.71.69 55.5 0 1-.8-.16c-9.9-10.34-28.57-4.71-39.89-1.14a.77.75-9 0 0-.54.72l-.09 58a.6.52 90 0 0 .52.6l10.57.02a.62.45-89.6 0 0 .46-.62l.22-49.81a.75.43-8.9 0 1 .6-.48Zm93.52 24.85c12.24-.16 28.55 3.03 33.3-12.67 2.79-9.21-1.13-21.88-11.37-24.37-13.71-3.35-33.35.6-33.96 18.47q-.16 4.65-.02 20.75.08 9.38 1.68 13.14c4.32 10.13 15.34 11.95 25.5 11.25q10.37-.72 16.46-8.53a.62.54-48.1 0 0 .01-.76l-6.95-7.3a.46.37-51.2 0 0-.64.14c-3.9 6-10.72 6.42-17.3 5.16-8.1-1.55-7.46-8.39-7.23-14.78a.52.52-88.9 0 1 .52-.5Zm46.96-30.03c-6.96 9.69-3.76 26.44 10.57 28.27 4.18.54 16.25.78 18.58 4.5 3.65 5.83-.63 11.49-6.66 12.69q-11.92 2.36-20.85-5.71a.53.42 42 0 0-.67-.04l-6.94 7.57a.58.54 44.3 0 0 .04.76c11.95 12.48 45.07 13.72 47.49-8.93 1.13-10.51-4.07-18.75-14.98-19.99-4.43-.51-11.15-.66-14.59-2.07-5.58-2.28-5.7-9.83-.66-12.71 6.27-3.57 15.37-1.35 20.5 2.56a.57.52-50.5 0 0 .74-.1l6.46-7.28a.85.83-51.1 0 0-.12-1.24c-10.45-7.55-30.46-10.04-38.91 1.72Zm-231.46 6.97a1.74 1.61 87.3 0 1 1.44-1.72l14-1.43a.61.55 87.4 0 0 .5-.6v-10.5a.51.48.6 0 0-.5-.48q-13.6-.39-26.24 4.48a.81.8 79.3 0 0-.51.75v58a.5.5 0 0 0 .5.5h10.24a.69.55-90 0 0 .55-.69l.02-48.31Zm64.19-13.76a.27.27 0 0 0-.27-.27h-10.88a.27.27 0 0 0-.27.27v62.5a.27.27 0 0 0 .27.27h10.88a.27.27 0 0 0 .27-.27v-62.5Z"/><path fill="#fba81e" d="M219 209.21q-2.08 1.82-2.75 4.37c-1.02 3.87-16.95 30.6-16.06 31.91a.67.39 48.4 0 1 .12.58l-3.24 6.25a.37.32 11.4 0 1-.32.18h-.25a.59.49-74.4 0 0-.45.31l-3.55 6.9q-8.23-3.51-11.29-10.94-4.54-11.03-9.19-28.13a.95.72 86.5 0 0-.54-.63q-.25-.08-.48-.05.39-.97.25-1.46-6.4-21.39-9.72-29.72-1.22-3.08-6.05-7.39 24.1-1.07 35.53-.17c4.41.35 23.94 23.47 27.99 27.99Z"/><path fill="#0258a6" d="M155.48 181.39q4.83 4.31 6.05 7.39 3.32 8.33 9.72 29.72.14.49-.25 1.46L166.71 233q-.32-2-2.06-2.77-.48-.21-.78-.57-.98-1.17-2.28-2.01c-5.59-3.64-10.63-8.17-16.2-11.31-4.5-2.54-8.6-4.75-13.23-7.94q-2.58-1.77-5.51-3.18 14.09-16.66 19.54-21.78 3.81-3.59 9.29-2.05Z"/><path fill="#0f78bf" d="M126.65 205.22q2.93 1.41 5.51 3.18c4.63 3.19 8.73 5.4 13.23 7.94 5.57 3.14 10.61 7.67 16.2 11.31q1.3.84 2.28 2.01.3.36.78.57 1.74.77 2.06 2.77c-4.54 16.58-7.51 23.48-22.96 29.21q-.68-3.96-4.51-6.69c-5.47-3.91-11.48-7.04-16.16-10.26q-10.02-6.91-20.83-12.55l24.4-27.49Z"/><path fill="#f26824" d="M219 209.21q14.07 14.84 27.69 30.1 5.33 5.98 3.75 12.86-4.56 5.42-11.13 8.14-13.18 5.47-22.71 8.86l-24.1-9.46 3.55-6.9a.59.49-74.4 0 1 .45-.31h.25a.37.32 11.4 0 0 .32-.18l3.24-6.25a.67.39 48.4 0 0-.12-.58c-.89-1.31 15.04-28.04 16.06-31.91q.67-2.55 2.75-4.37Z"/><path fill="#fff" d="M171 219.96q.23-.03.48.05a.95.72 86.5 0 1 .54.63q4.65 17.1 9.19 28.13 3.06 7.43 11.29 10.94l24.1 9.46-16.53 6.66c-9.35 3.47-16.67 6.79-20.09 16.66q-4.69 13.53-8.77 27.26l-.92-1.75q-5.16-18.15-8.31-26.24-4.45-11.45-17.29-14.84l-18.94-7.46 18-7.25c15.45-5.73 18.42-12.63 22.96-29.21l4.29-13.04Z"/><path fill="#010101" d="M308.07 269.19c-11.19-4.14-15.96-12.4-14.42-24.18 3.25-24.83 36.63-25.62 50.86-10.85a.68.43 45.3 0 1 .17.77l-7.16 7.59a.54.5-47.4 0 1-.72.06c-9.35-8.46-30.59-10.95-32.08 6.65-1.22 14.51 40.55 9.8 42.8 34.24 3.13 34.08-37.86 39.08-56.45 19.17a.6.59-45 0 1 .01-.81l7.22-8.02a.57.55-46.4 0 1 .81-.03q11.19 11.13 26.14 7.72c11.07-2.52 16.58-19.29 3.69-24.45q-4.64-1.87-20.87-7.86Zm192.73-31.44-.04 75.25a.51.5 0 0 1-.51.5H489a.5.5 0 0 1-.5-.5v-75.25a.5.48 0 0 0-.5-.48l-25 .06a.7.58 0 0 1-.7-.58l-.04-11a.5.49-90 0 1 .49-.5h63.5a.58.5 0 0 1 .58.5l-.01 11a.57.5 0 0 1-.57.5h-25a.5.45 90 0 0-.45.5Zm-129.78 57.46c-.01 8.88 4.74 8.8 11.72 7.16a.43.37-4.9 0 1 .53.38l-1.14 9.82a.83.68-8.7 0 1-.54.6c-11.26 3.79-22.07-3.01-22.08-15.17q-.02-29.73 0-59.46a.94.84 78.6 0 1 .48-.82l10.44-5.05a.37.37-13.1 0 1 .53.33l-.17 18a.75.46-90 0 0 .46.75h10.5a.5.5 0 0 1 .5.5V261a.5.5 0 0 1-.5.5h-10.24a.63.57 89.5 0 0-.57.64q.09 16.57.08 33.07Z"/><path fill="#25a1dd" d="M102.25 232.71q10.81 5.64 20.83 12.55c4.68 3.22 10.69 6.35 16.16 10.26q3.83 2.73 4.51 6.69l-18 7.25q-8.84 2.65-17.35 6.21c-7.39 3.09-13.25 4.47-16.78 12.36q-.85-16.92-.58-33.78c.09-6.01.51-9.84 4.34-14.11q3.38-3.76 6.87-7.43Z"/><path fill="#010101" d="M426.47 275.68c.64-11.1-2.34-15.99-14.23-15.3q-6.67.39-10.51 5.7a.48.4-49.3 0 1-.67.11l-6.83-7.16a.62.52-49.6 0 1 0-.74c9.79-13.42 39.14-12.21 43.12 6.22q.47 2.16.59 13.43.17 15.27.01 30.57a.71.71 80.1 0 1-.47.67c-13.33 4.81-42.05 12.2-45.45-9.95-1.92-12.44 4.47-22.66 17.91-22.88q7.99-.13 16-.16a.54.53-88.3 0 0 .53-.51Zm-19.79 26.12q1.88 1.36 4.32 1.44 7.44.25 14.74-1.31a.63.38-8.9 0 0 .51-.43v-15a.6.54 0 0 0-.6-.54q-6.75-.01-13.44.17c-8.86.24-12.57 10.61-5.53 15.67Zm146.01-38.61-.22 49.81a.62.45-89.6 0 1-.46.62l-10.57-.02a.6.52-90 0 1-.52-.6l.09-58a.77.75-9 0 1 .54-.72c11.32-3.57 29.99-9.2 39.89 1.14a.71.69 55.5 0 0 .8.16c18.93-8.94 39.93-11.03 39.98 17.51q.04 19.99.06 39.97a.6.47-.5 0 1-.6.48l-10.43-.03a.56.48-90 0 1-.48-.56q-.04-19.74-.01-39.45c.02-15.45-13.1-14.5-22.82-8.94a.87.74-17.1 0 0-.44.69v48a.5.5 0 0 1-.5.5h-10.75a.66.41 90 0 1-.41-.66q-.07-17.46-.12-34.86c-.05-17.88-6.31-18.87-22.43-15.52a.75.43-8.9 0 0-.6.48Zm93.6 24.87c-.23 6.39-.87 13.23 7.23 14.78 6.58 1.26 13.4.84 17.3-5.16a.46.37-51.2 0 1 .64-.14l6.95 7.3a.62.54-48.1 0 1-.01.76q-6.09 7.81-16.46 8.53c-10.16.7-21.18-1.12-25.5-11.25q-1.6-3.76-1.68-13.14-.14-16.1.02-20.75c.61-17.87 20.25-21.82 33.96-18.47 10.24 2.49 14.16 15.16 11.37 24.37-4.75 15.7-21.06 12.51-33.3 12.67a.52.52-88.9 0 0-.52.5Zm.15-10.25c7.1 0 21.57 2.6 22.82-7.53 1.43-11.58-12.75-11.26-19.51-7.42-4.75 2.7-3.59 10.03-3.77 14.47a.46.46-88.8 0 0 .46.48Zm57.9 7.99c-14.33-1.83-17.53-18.58-10.57-28.27 8.45-11.76 28.46-9.27 38.91-1.72a.85.83-51.1 0 1 .12 1.24l-6.46 7.28a.57.52-50.5 0 1-.74.1c-5.13-3.91-14.23-6.13-20.5-2.56-5.04 2.88-4.92 10.43.66 12.71 3.44 1.41 10.16 1.56 14.59 2.07 10.91 1.24 16.11 9.48 14.98 19.99-2.42 22.65-35.54 21.41-47.49 8.93a.58.54 44.3 0 1-.04-.76l6.94-7.57a.53.42 42 0 1 .67.04q8.93 8.07 20.85 5.71c6.03-1.2 10.31-6.86 6.66-12.69-2.33-3.72-14.4-3.96-18.58-4.5Zm-242.03-21.3-.02 48.31a.69.55-90 0 1-.55.69H451.5a.5.5 0 0 1-.5-.5v-58a.81.8 79.3 0 1 .51-.75q12.64-4.87 26.24-4.48a.51.48.6 0 1 .5.48v10.5a.61.55 87.4 0 1-.5.6l-14 1.43a1.74 1.61 87.3 0 0-1.44 1.72Z"/><rect width="11.42" height="63.04" x="515.08" y="250.47" fill="#010101" rx=".27"/><path fill="#25a1dd" d="M250.44 252.17q.79 27.62.3 38.83c-.17 3.82-6.31 9.75-8.94 12.71q-1.47-2.25-3.93-3.17-3.43-1.29-3.98-1.61c-8.23-4.75-16.59-9.39-24.14-15.2q-3.2-2.46-7.56-4.17-2.01-.79-2.12-3.73l16.53-6.66q9.53-3.39 22.71-8.86 6.57-2.72 11.13-8.14Z"/><path fill="#fff" d="M646.44 277.81a.46.46-88.8 0 1-.46-.48c.18-4.44-.98-11.77 3.77-14.47 6.76-3.84 20.94-4.16 19.51 7.42-1.25 10.13-15.72 7.53-22.82 7.53Z"/><path fill="#f26824" d="m125.75 269.46 18.94 7.46q-.12.89-.45.9a.57.22.2 0 0-.54.21q-.05.29.08.49a.99.4 51.8 0 1 .22.76q-2.6 6.74-6.39 12.86a.33.29-51 0 0 .01.37q.1.11.27.1.32-.03.19.21l-9.97 18.79q-.07.11-.08-.03l-.02-.19q-.06-.52-.34.04l-4.16 8.32a1.33.91 53.7 0 0 .03.97q.16.4.07.87-.64 3.24-3.64 4.25-12.61-13.46-24.91-27.15-4.26-4.75-3.44-10.66c3.53-7.89 9.39-9.27 16.78-12.36q8.51-3.56 17.35-6.21Z"/><path fill="#0c6fb8" d="M200.07 275.83q.11 2.94 2.12 3.73 4.36 1.71 7.56 4.17c7.55 5.81 15.91 10.45 24.14 15.2q.55.32 3.98 1.61 2.46.92 3.93 3.17l-43.04 48.54q-9.16-4.42-17.58-10.19-.81-.55-3.14-.81l-6.83-21.5q4.08-13.73 8.77-27.26c3.42-9.87 10.74-13.19 20.09-16.66Z"/><path fill="#f99921" d="M144.69 276.92q12.84 3.39 17.29 14.84 3.15 8.09 8.31 26.24-.01.99-.78 1.39-.5.25-.74.62l-2.83 4.17q-.25.37-.33.97c-.53 3.96-3.28 5.11-4.66 8.1q-2.76 6.02-5.75 11.91c-1.58 3.11-3.23 7.76-5.59 11.44-2.43-.02-26.33-27.09-29.64-30.76q3-1.01 3.64-4.25.09-.47-.07-.87a1.33.91 53.7 0 1-.03-.97l4.16-8.32q.28-.56.34-.04l.02.19q.01.14.08.03l9.97-18.79q.13-.24-.19-.21-.17.01-.27-.1a.33.29-51 0 1-.01-.37q3.79-6.12 6.39-12.86a.99.4 51.8 0 0-.22-.76q-.13-.2-.08-.49a.57.22.2 0 1 .54-.21q.33-.01.45-.9Z"/><path fill="#fff" d="M406.68 301.8c-7.04-5.06-3.33-15.43 5.53-15.67q6.69-.18 13.44-.17a.6.54 0 0 1 .6.54v15a.63.38-8.9 0 1-.51.43q-7.3 1.56-14.74 1.31-2.44-.08-4.32-1.44Z"/><path fill="#fec31a" d="m170.29 318 .92 1.75 6.83 21.5c1.5 6.42 4.11 12 9.48 15.89q-17.84.74-35.67.19c-.72-.02-1.52-.43-2.24-.73 2.36-3.68 4.01-8.33 5.59-11.44q2.99-5.89 5.75-11.91c1.38-2.99 4.13-4.14 4.66-8.1q.08-.6.33-.97l2.83-4.17q.24-.37.74-.62.77-.4.78-1.39Z"/><path fill="#023e78" d="M178.04 341.25q2.33.26 3.14.81 8.42 5.77 17.58 10.19c-2.93 3.5-6.5 6.11-11.24 4.89-5.37-3.89-7.98-9.47-9.48-15.89Z"/><path fill="#eaebea" d="M794.19 600H.94c-1.75-.84.16-1 .65-1h797.35a.45.37 7.8 0 1 .45.49c-.15.4-3.88.2-5.2.51Z"/></svg>